<mxfile host="app.diagrams.net" modified="2021-03-06T08:30:56.868Z" agent="5.0 (Windows NT 10.0; Win64; x64) AppleWebKit/537.36 (KHTML, like Gecko) Chrome/90.0.4428.0 Safari/537.36 Edg/90.0.817.0" etag="Ws9mPHfiEUWgz_r-jgnM" version="14.4.4" type="github">
  <diagram id="t3cCbEBY9hsAlw8VPBtw" name="第 1 页">
    <mxGraphModel dx="2249" dy="794" grid="1" gridSize="10" guides="1" tooltips="1" connect="1" arrows="1" fold="1" page="1" pageScale="1" pageWidth="827" pageHeight="1169" math="0" shadow="0">
      <root>
        <mxCell id="0" />
        <mxCell id="1" parent="0" />
        <mxCell id="w5EEzix6VfJLTq8Lt9_Y-9" value="商家" style="shape=umlActor;verticalLabelPosition=bottom;verticalAlign=top;html=1;outlineConnect=0;movable=1;resizable=1;rotatable=1;deletable=1;editable=1;connectable=1;" vertex="1" parent="1">
          <mxGeometry x="-53" y="100" width="30" height="60" as="geometry" />
        </mxCell>
        <mxCell id="w5EEzix6VfJLTq8Lt9_Y-10" value="顾客" style="shape=umlActor;verticalLabelPosition=bottom;verticalAlign=top;html=1;outlineConnect=0;" vertex="1" parent="1">
          <mxGeometry x="505" y="100" width="30" height="60" as="geometry" />
        </mxCell>
        <mxCell id="w5EEzix6VfJLTq8Lt9_Y-11" value="科脉点餐系统" style="shape=umlLifeline;perimeter=lifelinePerimeter;whiteSpace=wrap;html=1;container=1;collapsible=0;recursiveResize=0;outlineConnect=0;" vertex="1" parent="1">
          <mxGeometry x="640" y="100" width="120" height="1060" as="geometry" />
        </mxCell>
        <mxCell id="w5EEzix6VfJLTq8Lt9_Y-12" value="" style="html=1;points=[];perimeter=orthogonalPerimeter;fillColor=#60a917;strokeColor=#2D7600;fontColor=#ffffff;" vertex="1" parent="w5EEzix6VfJLTq8Lt9_Y-11">
          <mxGeometry x="55" y="308" width="10" height="522" as="geometry" />
        </mxCell>
        <mxCell id="w5EEzix6VfJLTq8Lt9_Y-44" value="返回带签名的支付信息" style="html=1;verticalAlign=bottom;endArrow=block;labelBackgroundColor=#ffffff;fontFamily=Verdana;fontSize=12;elbow=vertical;edgeStyle=orthogonalEdgeStyle;curved=1;exitX=1;exitY=0.84;exitDx=0;exitDy=0;exitPerimeter=0;" edge="1" parent="w5EEzix6VfJLTq8Lt9_Y-11">
          <mxGeometry x="0.6067" y="-19" relative="1" as="geometry">
            <mxPoint x="65" y="728.8800000000001" as="sourcePoint" />
            <mxPoint x="65" y="774" as="targetPoint" />
            <Array as="points">
              <mxPoint x="65" y="716" />
              <mxPoint x="215" y="716" />
              <mxPoint x="215" y="774" />
            </Array>
            <mxPoint as="offset" />
          </mxGeometry>
        </mxCell>
        <mxCell id="w5EEzix6VfJLTq8Lt9_Y-13" value="微平台系统" style="shape=umlLifeline;perimeter=lifelinePerimeter;whiteSpace=wrap;html=1;container=1;collapsible=0;recursiveResize=0;outlineConnect=0;" vertex="1" parent="1">
          <mxGeometry x="280" y="100" width="120" height="940" as="geometry" />
        </mxCell>
        <mxCell id="w5EEzix6VfJLTq8Lt9_Y-14" value="" style="html=1;points=[];perimeter=orthogonalPerimeter;fillColor=#1ba1e2;strokeColor=#006EAF;fontColor=#ffffff;" vertex="1" parent="w5EEzix6VfJLTq8Lt9_Y-13">
          <mxGeometry x="54" y="180" width="10" height="80" as="geometry" />
        </mxCell>
        <mxCell id="w5EEzix6VfJLTq8Lt9_Y-16" value="享钱商户后台系统" style="shape=umlLifeline;perimeter=lifelinePerimeter;whiteSpace=wrap;html=1;container=1;collapsible=0;recursiveResize=0;outlineConnect=0;" vertex="1" parent="1">
          <mxGeometry x="80" y="100" width="120" height="940" as="geometry" />
        </mxCell>
        <mxCell id="w5EEzix6VfJLTq8Lt9_Y-17" value="" style="html=1;points=[];perimeter=orthogonalPerimeter;fillColor=#1ba1e2;strokeColor=#006EAF;fontColor=#ffffff;" vertex="1" parent="w5EEzix6VfJLTq8Lt9_Y-16">
          <mxGeometry x="54" y="90" width="10" height="60" as="geometry" />
        </mxCell>
        <mxCell id="w5EEzix6VfJLTq8Lt9_Y-18" value="" style="endArrow=none;dashed=1;html=1;movable=1;resizable=1;rotatable=1;deletable=1;editable=1;connectable=1;" edge="1" parent="1">
          <mxGeometry width="50" height="50" relative="1" as="geometry">
            <mxPoint x="-40" y="1040" as="sourcePoint" />
            <mxPoint x="-38" y="180" as="targetPoint" />
          </mxGeometry>
        </mxCell>
        <mxCell id="w5EEzix6VfJLTq8Lt9_Y-19" value="开通微信支付及相关配置" style="html=1;verticalAlign=bottom;endArrow=block;labelBackgroundColor=none;fontFamily=Verdana;fontSize=12;edgeStyle=elbowEdgeStyle;elbow=vertical;" edge="1" parent="1" target="w5EEzix6VfJLTq8Lt9_Y-17">
          <mxGeometry relative="1" as="geometry">
            <mxPoint x="-40" y="220" as="sourcePoint" />
            <mxPoint x="90" y="220" as="targetPoint" />
          </mxGeometry>
        </mxCell>
        <mxCell id="w5EEzix6VfJLTq8Lt9_Y-20" value="&lt;div style=&quot;text-align: left&quot;&gt;&lt;span style=&quot;font-size: 14px&quot;&gt;&lt;font color=&quot;#333333&quot;&gt;配置享钱账户及绑定门店&lt;/font&gt;&lt;/span&gt;&lt;/div&gt;" style="html=1;verticalAlign=bottom;endArrow=block;labelBackgroundColor=none;fontFamily=Verdana;fontSize=12;edgeStyle=elbowEdgeStyle;elbow=vertical;" edge="1" parent="1">
          <mxGeometry relative="1" as="geometry">
            <mxPoint x="-38" y="316.5" as="sourcePoint" />
            <mxPoint x="331.5" y="317" as="targetPoint" />
          </mxGeometry>
        </mxCell>
        <mxCell id="w5EEzix6VfJLTq8Lt9_Y-21" value="" style="endArrow=none;dashed=1;html=1;movable=1;resizable=1;rotatable=1;deletable=1;editable=1;connectable=1;" edge="1" parent="1" source="w5EEzix6VfJLTq8Lt9_Y-24">
          <mxGeometry width="50" height="50" relative="1" as="geometry">
            <mxPoint x="520" y="640" as="sourcePoint" />
            <mxPoint x="520" y="180" as="targetPoint" />
          </mxGeometry>
        </mxCell>
        <mxCell id="w5EEzix6VfJLTq8Lt9_Y-22" value="&lt;div style=&quot;text-align: left&quot;&gt;&lt;font color=&quot;#333333&quot;&gt;&lt;span style=&quot;font-size: 14px&quot;&gt;选菜&lt;/span&gt;&lt;/font&gt;&lt;/div&gt;" style="html=1;verticalAlign=bottom;endArrow=block;labelBackgroundColor=none;fontFamily=Verdana;fontSize=12;edgeStyle=elbowEdgeStyle;elbow=vertical;" edge="1" parent="1" target="w5EEzix6VfJLTq8Lt9_Y-12">
          <mxGeometry relative="1" as="geometry">
            <mxPoint x="520" y="412" as="sourcePoint" />
            <mxPoint x="679.5" y="411.5" as="targetPoint" />
            <Array as="points">
              <mxPoint x="700" y="412" />
            </Array>
          </mxGeometry>
        </mxCell>
        <mxCell id="w5EEzix6VfJLTq8Lt9_Y-23" value="&lt;div style=&quot;text-align: left&quot;&gt;&lt;font color=&quot;#333333&quot;&gt;&lt;span style=&quot;font-size: 14px&quot;&gt;下单&lt;/span&gt;&lt;/font&gt;&lt;/div&gt;" style="html=1;verticalAlign=bottom;endArrow=block;labelBackgroundColor=none;fontFamily=Verdana;fontSize=12;edgeStyle=elbowEdgeStyle;elbow=vertical;" edge="1" parent="1" target="w5EEzix6VfJLTq8Lt9_Y-11">
          <mxGeometry relative="1" as="geometry">
            <mxPoint x="520" y="458.5" as="sourcePoint" />
            <mxPoint x="679.5" y="458" as="targetPoint" />
            <Array as="points">
              <mxPoint x="600" y="470" />
            </Array>
          </mxGeometry>
        </mxCell>
        <mxCell id="w5EEzix6VfJLTq8Lt9_Y-24" value="" style="html=1;points=[];perimeter=orthogonalPerimeter;fillColor=#60a917;strokeColor=#2D7600;fontColor=#ffffff;" vertex="1" parent="1">
          <mxGeometry x="515" y="410" width="10" height="80" as="geometry" />
        </mxCell>
        <mxCell id="w5EEzix6VfJLTq8Lt9_Y-25" value="" style="endArrow=none;dashed=1;html=1;movable=1;resizable=1;rotatable=1;deletable=1;editable=1;connectable=1;" edge="1" parent="1" target="w5EEzix6VfJLTq8Lt9_Y-24">
          <mxGeometry width="50" height="50" relative="1" as="geometry">
            <mxPoint x="520" y="1040" as="sourcePoint" />
            <mxPoint x="520" y="180" as="targetPoint" />
          </mxGeometry>
        </mxCell>
        <mxCell id="w5EEzix6VfJLTq8Lt9_Y-27" value="微信支付系统" style="shape=umlLifeline;perimeter=lifelinePerimeter;whiteSpace=wrap;html=1;container=1;collapsible=0;recursiveResize=0;outlineConnect=0;" vertex="1" parent="1">
          <mxGeometry x="1040" y="100" width="120" height="1070" as="geometry" />
        </mxCell>
        <mxCell id="w5EEzix6VfJLTq8Lt9_Y-28" value="" style="html=1;points=[];perimeter=orthogonalPerimeter;fillColor=#60a917;strokeColor=#2D7600;fontColor=#ffffff;" vertex="1" parent="w5EEzix6VfJLTq8Lt9_Y-27">
          <mxGeometry x="55" y="490" width="10" height="160" as="geometry" />
        </mxCell>
        <mxCell id="w5EEzix6VfJLTq8Lt9_Y-48" value="" style="html=1;points=[];perimeter=orthogonalPerimeter;fillColor=#60a917;strokeColor=#2D7600;fontColor=#ffffff;" vertex="1" parent="w5EEzix6VfJLTq8Lt9_Y-27">
          <mxGeometry x="55" y="900" width="10" height="80" as="geometry" />
        </mxCell>
        <mxCell id="w5EEzix6VfJLTq8Lt9_Y-34" value="享钱支付系统" style="shape=umlLifeline;perimeter=lifelinePerimeter;whiteSpace=wrap;html=1;container=1;collapsible=0;recursiveResize=0;outlineConnect=0;" vertex="1" parent="1">
          <mxGeometry x="827" y="100" width="133" height="1070" as="geometry" />
        </mxCell>
        <mxCell id="w5EEzix6VfJLTq8Lt9_Y-35" value="" style="html=1;points=[];perimeter=orthogonalPerimeter;fillColor=#60a917;strokeColor=#2D7600;fontColor=#ffffff;" vertex="1" parent="w5EEzix6VfJLTq8Lt9_Y-34">
          <mxGeometry x="61.5" y="440" width="10" height="340" as="geometry" />
        </mxCell>
        <mxCell id="w5EEzix6VfJLTq8Lt9_Y-36" value="生成预付单" style="html=1;verticalAlign=bottom;endArrow=block;labelBackgroundColor=#ffffff;fontFamily=Verdana;fontSize=12;elbow=vertical;edgeStyle=orthogonalEdgeStyle;curved=1;exitX=1.066;exitY=0.713;exitPerimeter=0;" edge="1" parent="1">
          <mxGeometry x="0.0651" relative="1" as="geometry">
            <mxPoint x="1110.6599999999999" y="640.0100000000002" as="sourcePoint" />
            <mxPoint x="1105" y="679.0999999999999" as="targetPoint" />
            <Array as="points">
              <mxPoint x="1160" y="640.1" />
              <mxPoint x="1160" y="679.1" />
            </Array>
            <mxPoint as="offset" />
          </mxGeometry>
        </mxCell>
        <mxCell id="w5EEzix6VfJLTq8Lt9_Y-38" value="&lt;div style=&quot;text-align: left&quot;&gt;&lt;font color=&quot;#333333&quot;&gt;&lt;span style=&quot;font-size: 14px&quot;&gt;请求享钱支付接口&lt;/span&gt;&lt;/font&gt;&lt;/div&gt;" style="html=1;verticalAlign=bottom;endArrow=block;labelBackgroundColor=none;fontFamily=Verdana;fontSize=12;edgeStyle=elbowEdgeStyle;elbow=vertical;" edge="1" parent="1">
          <mxGeometry relative="1" as="geometry">
            <mxPoint x="710" y="575" as="sourcePoint" />
            <mxPoint x="889.5" y="575.5" as="targetPoint" />
          </mxGeometry>
        </mxCell>
        <mxCell id="w5EEzix6VfJLTq8Lt9_Y-39" value="&lt;div style=&quot;text-align: left&quot;&gt;&lt;font color=&quot;#333333&quot;&gt;&lt;span style=&quot;font-size: 14px&quot;&gt;请求微信支付统一下单接口&lt;/span&gt;&lt;/font&gt;&lt;/div&gt;" style="html=1;verticalAlign=bottom;endArrow=block;labelBackgroundColor=none;fontFamily=Verdana;fontSize=12;edgeStyle=elbowEdgeStyle;elbow=vertical;entryX=0.1;entryY=0.132;entryDx=0;entryDy=0;entryPerimeter=0;" edge="1" parent="1" source="w5EEzix6VfJLTq8Lt9_Y-35" target="w5EEzix6VfJLTq8Lt9_Y-28">
          <mxGeometry relative="1" as="geometry">
            <mxPoint x="910" y="620" as="sourcePoint" />
            <mxPoint x="1089.5" y="620.5" as="targetPoint" />
          </mxGeometry>
        </mxCell>
        <mxCell id="w5EEzix6VfJLTq8Lt9_Y-40" value="返回带签名的支付信息" style="html=1;verticalAlign=bottom;endArrow=block;labelBackgroundColor=#ffffff;fontFamily=Verdana;fontSize=12;elbow=vertical;edgeStyle=orthogonalEdgeStyle;curved=1;" edge="1" parent="1">
          <mxGeometry x="0.6067" y="-19" relative="1" as="geometry">
            <mxPoint x="895" y="769" as="sourcePoint" />
            <mxPoint x="895" y="799" as="targetPoint" />
            <Array as="points">
              <mxPoint x="895" y="741" />
              <mxPoint x="1040" y="741" />
              <mxPoint x="1040" y="799" />
            </Array>
            <mxPoint as="offset" />
          </mxGeometry>
        </mxCell>
        <mxCell id="w5EEzix6VfJLTq8Lt9_Y-41" value="&lt;div style=&quot;text-align: left&quot;&gt;&lt;font color=&quot;#333333&quot;&gt;&lt;span style=&quot;font-size: 14px&quot;&gt;返回预付订单标识&lt;/span&gt;&lt;/font&gt;&lt;/div&gt;" style="html=1;verticalAlign=bottom;endArrow=block;labelBackgroundColor=none;fontFamily=Verdana;fontSize=12;edgeStyle=elbowEdgeStyle;elbow=vertical;dashed=1;" edge="1" parent="1">
          <mxGeometry x="0.4667" y="-8" relative="1" as="geometry">
            <mxPoint x="925" y="718" as="sourcePoint" />
            <mxPoint x="900" y="718" as="targetPoint" />
            <mxPoint as="offset" />
            <Array as="points">
              <mxPoint x="1100" y="718" />
            </Array>
          </mxGeometry>
        </mxCell>
        <mxCell id="w5EEzix6VfJLTq8Lt9_Y-42" value="&amp;nbsp;生成订单" style="html=1;verticalAlign=bottom;endArrow=block;labelBackgroundColor=#ffffff;fontFamily=Verdana;fontSize=12;elbow=vertical;edgeStyle=orthogonalEdgeStyle;curved=1;" edge="1" parent="1">
          <mxGeometry x="0.0651" relative="1" as="geometry">
            <mxPoint x="705" y="501" as="sourcePoint" />
            <mxPoint x="705" y="540" as="targetPoint" />
            <Array as="points">
              <mxPoint x="770" y="501" />
              <mxPoint x="770" y="540" />
            </Array>
            <mxPoint as="offset" />
          </mxGeometry>
        </mxCell>
        <mxCell id="w5EEzix6VfJLTq8Lt9_Y-46" value="&lt;div style=&quot;text-align: left&quot;&gt;&lt;font color=&quot;#333333&quot;&gt;&lt;span style=&quot;font-size: 14px&quot;&gt;发起及调起微信支付&lt;/span&gt;&lt;/font&gt;&lt;/div&gt;" style="html=1;verticalAlign=bottom;endArrow=block;labelBackgroundColor=none;fontFamily=Verdana;fontSize=12;edgeStyle=elbowEdgeStyle;elbow=vertical;" edge="1" parent="1" target="w5EEzix6VfJLTq8Lt9_Y-27">
          <mxGeometry relative="1" as="geometry">
            <mxPoint x="515" y="1010.5" as="sourcePoint" />
            <mxPoint x="694.5" y="1010" as="targetPoint" />
            <Array as="points">
              <mxPoint x="595" y="1010" />
            </Array>
          </mxGeometry>
        </mxCell>
        <mxCell id="w5EEzix6VfJLTq8Lt9_Y-47" value="" style="html=1;points=[];perimeter=orthogonalPerimeter;fillColor=#60a917;strokeColor=#2D7600;fontColor=#ffffff;" vertex="1" parent="1">
          <mxGeometry x="515" y="1000" width="10" height="80" as="geometry" />
        </mxCell>
      </root>
    </mxGraphModel>
  </diagram>
</mxfile>
